<svg width="454" height="168" viewBox="0 0 454 168" fill="none" xmlns="http://www.w3.org/2000/svg">
<path d="M59.76 166.553C57.04 162.374 53.98 158.235 50.58 154.136C47.18 150.037 43.6 146.179 39.84 142.562C36.08 138.945 32.26 135.65 28.38 132.676C24.5 129.703 20.76 127.211 17.16 125.202V166.553H9V83.0063H17.16V121.947C20.2 119.214 23.58 116.059 27.3 112.483C31.02 108.906 34.7 105.31 38.34 101.693C41.98 98.0761 45.4 94.6202 48.6 91.3249C51.8 88.0296 54.36 85.2568 56.28 83.0063H66.12C63.8 85.4979 61 88.4515 57.72 91.8674C54.44 95.2832 50.96 98.7995 47.28 102.416C43.6 106.033 39.94 109.589 36.3 113.086C32.66 116.582 29.4 119.656 26.52 122.308C28.84 123.755 31.34 125.543 34.02 127.673C36.7 129.803 39.42 132.134 42.18 134.666C44.94 137.197 47.66 139.85 50.34 142.622C53.02 145.395 55.54 148.188 57.9 151.001C60.26 153.814 62.38 156.547 64.26 159.199C66.14 161.852 67.68 164.303 68.88 166.553H59.76ZM128.04 164.383C125.72 165.026 122.6 165.75 118.68 166.553C114.76 167.357 109.96 167.759 104.28 167.759C99.64 167.759 95.76 167.076 92.64 165.709C89.52 164.343 87 162.414 85.08 159.923C83.16 157.431 81.78 154.417 80.94 150.881C80.1 147.344 79.68 143.446 79.68 139.187V104.225H87.48V136.655C87.48 141.075 87.8 144.813 88.44 147.867C89.08 150.921 90.12 153.392 91.56 155.281C93 157.17 94.86 158.536 97.14 159.38C99.42 160.224 102.2 160.646 105.48 160.646C109.16 160.646 112.36 160.445 115.08 160.043C117.8 159.641 119.52 159.28 120.24 158.958V104.225H128.04V164.383ZM156.48 107.962C157.84 106.917 160.02 105.812 163.02 104.647C166.02 103.481 169.56 102.898 173.64 102.898C178.12 102.898 182.1 103.702 185.58 105.31C189.06 106.917 192 109.167 194.4 112.061C196.8 114.954 198.62 118.39 199.86 122.369C201.1 126.347 201.72 130.707 201.72 135.449C201.72 140.513 200.98 145.054 199.5 149.072C198.02 153.091 195.94 156.507 193.26 159.32C190.58 162.133 187.38 164.283 183.66 165.77C179.94 167.257 175.8 168 171.24 168C165.72 168 161.16 167.638 157.56 166.915C153.96 166.192 151 165.428 148.68 164.624V74.4467L156.48 73V107.962ZM156.48 159.199C157.68 159.601 159.46 159.983 161.82 160.345C164.18 160.706 167.28 160.887 171.12 160.887C177.84 160.887 183.24 158.697 187.32 154.317C191.4 149.936 193.44 143.647 193.44 135.449C193.44 131.993 193.08 128.718 192.36 125.624C191.64 122.529 190.48 119.837 188.88 117.546C187.28 115.256 185.18 113.427 182.58 112.061C179.98 110.695 176.76 110.011 172.92 110.011C171.08 110.011 169.32 110.192 167.64 110.554C165.96 110.916 164.4 111.378 162.96 111.94C161.52 112.503 160.26 113.106 159.18 113.749C158.1 114.392 157.2 114.994 156.48 115.557V159.199ZM214.92 135.329C214.92 129.863 215.7 125.101 217.26 121.043C218.82 116.984 220.86 113.588 223.38 110.855C225.9 108.123 228.78 106.093 232.02 104.767C235.26 103.441 238.6 102.778 242.04 102.778C249.64 102.778 255.7 105.269 260.22 110.253C264.74 115.236 267 122.911 267 133.279C267 133.922 266.98 134.565 266.94 135.208C266.9 135.851 266.84 136.454 266.76 137.016H223.2C223.44 144.652 225.32 150.519 228.84 154.618C232.36 158.717 237.96 160.766 245.64 160.766C249.88 160.766 253.24 160.365 255.72 159.561C258.2 158.757 260 158.074 261.12 157.511L262.56 164.263C261.44 164.906 259.34 165.669 256.26 166.553C253.18 167.437 249.56 167.879 245.4 167.879C239.96 167.879 235.32 167.076 231.48 165.468C227.64 163.861 224.48 161.61 222 158.717C219.52 155.824 217.72 152.388 216.6 148.409C215.48 144.431 214.92 140.071 214.92 135.329ZM258.96 130.386C258.8 123.876 257.28 118.812 254.4 115.195C251.52 111.579 247.44 109.77 242.16 109.77C239.36 109.77 236.86 110.333 234.66 111.458C232.46 112.583 230.54 114.09 228.9 115.979C227.26 117.868 225.98 120.058 225.06 122.549C224.14 125.041 223.6 127.653 223.44 130.386H258.96Z" fill="white"/>
<path d="M303.656 160.914C310.151 160.914 315.203 159.733 318.811 157.371C322.419 155.009 324.223 151.186 324.223 145.901C324.223 142.859 323.642 140.317 322.479 138.275C321.317 136.233 319.773 134.512 317.849 133.111C315.924 131.709 313.719 130.508 311.234 129.508C308.748 128.507 306.142 127.446 303.416 126.325C299.968 124.964 296.881 123.563 294.155 122.121C291.428 120.68 289.103 119.059 287.179 117.257C285.254 115.456 283.791 113.394 282.789 111.072C281.786 108.75 281.285 106.028 281.285 102.905C281.285 95.7791 283.651 90.3746 288.381 86.6915C293.112 83.0084 299.687 81.1669 308.107 81.1669C310.352 81.1669 312.557 81.327 314.722 81.6473C316.887 81.9676 318.911 82.3879 320.796 82.9083C322.68 83.4288 324.404 84.0093 325.967 84.6498C327.531 85.2904 328.834 85.9709 329.876 86.6915L326.99 93.5373C324.664 91.9359 321.838 90.6549 318.51 89.6941C315.183 88.7332 311.595 88.2528 307.746 88.2528C305.1 88.2528 302.674 88.5131 300.469 89.0335C298.264 89.5539 296.36 90.3946 294.756 91.5556C293.152 92.7166 291.889 94.1778 290.967 95.9393C290.045 97.7008 289.584 99.8226 289.584 102.305C289.584 104.867 290.065 107.029 291.027 108.79C291.99 110.552 293.333 112.073 295.057 113.354C296.781 114.635 298.805 115.796 301.131 116.837C303.456 117.878 305.982 118.959 308.708 120.08C311.995 121.441 315.103 122.802 318.029 124.163C320.956 125.524 323.502 127.126 325.667 128.967C327.832 130.809 329.556 133.051 330.839 135.693C332.121 138.335 332.763 141.578 332.763 145.421C332.763 152.947 330.137 158.592 324.885 162.355C319.633 166.118 312.517 168 303.536 168C300.329 168 297.402 167.8 294.756 167.399C292.11 166.999 289.745 166.499 287.66 165.898C285.575 165.298 283.811 164.677 282.368 164.037C280.924 163.396 279.802 162.836 279 162.355L281.646 155.269C282.448 155.75 283.53 156.31 284.893 156.951C286.257 157.591 287.86 158.212 289.704 158.812C291.549 159.413 293.633 159.913 295.959 160.314C298.284 160.714 300.85 160.914 303.656 160.914ZM367.041 160.554C370.088 160.554 372.754 160.454 375.039 160.253C377.325 160.053 379.269 159.793 380.873 159.473V137.614C379.991 137.214 378.588 136.794 376.663 136.353C374.739 135.913 372.093 135.693 368.725 135.693C366.801 135.693 364.796 135.833 362.711 136.113C360.627 136.393 358.702 136.994 356.938 137.915C355.174 138.835 353.731 140.096 352.608 141.698C351.486 143.299 350.924 145.421 350.924 148.063C350.924 150.385 351.305 152.347 352.067 153.948C352.829 155.55 353.911 156.831 355.314 157.791C356.718 158.752 358.401 159.453 360.366 159.893C362.33 160.334 364.556 160.554 367.041 160.554ZM366.32 102.665C370.409 102.665 373.877 103.245 376.723 104.406C379.57 105.567 381.875 107.169 383.639 109.21C385.403 111.252 386.686 113.674 387.488 116.477C388.29 119.279 388.691 122.322 388.691 125.604V164.757C387.889 164.997 386.726 165.258 385.203 165.538C383.679 165.818 381.915 166.118 379.911 166.439C377.906 166.759 375.681 167.019 373.235 167.219C370.79 167.42 368.284 167.52 365.718 167.52C362.431 167.52 359.404 167.159 356.637 166.439C353.871 165.718 351.466 164.577 349.421 163.016C347.376 161.454 345.773 159.453 344.61 157.011C343.447 154.569 342.866 151.586 342.866 148.063C342.866 144.7 343.507 141.818 344.79 139.416C346.073 137.014 347.877 135.032 350.203 133.471C352.528 131.91 355.294 130.769 358.502 130.048C361.709 129.327 365.197 128.967 368.966 128.967C370.088 128.967 371.271 129.027 372.514 129.147C373.757 129.267 374.959 129.428 376.122 129.628C377.285 129.828 378.287 130.028 379.129 130.228C379.971 130.428 380.552 130.609 380.873 130.769V126.925C380.873 124.764 380.712 122.662 380.392 120.62C380.071 118.578 379.369 116.737 378.287 115.095C377.204 113.454 375.681 112.133 373.716 111.132C371.752 110.131 369.166 109.631 365.959 109.631C361.388 109.631 357.981 109.951 355.735 110.592C353.49 111.232 351.847 111.753 350.804 112.153L349.722 105.307C351.085 104.667 353.19 104.066 356.036 103.506C358.883 102.945 362.31 102.665 366.32 102.665ZM416.474 166.198H408.656V104.106H416.474V166.198ZM418.278 85.3704C418.278 87.212 417.717 88.6732 416.594 89.7541C415.472 90.835 414.109 91.3755 412.505 91.3755C410.901 91.3755 409.538 90.835 408.416 89.7541C407.293 88.6732 406.732 87.212 406.732 85.3704C406.732 83.5289 407.293 82.0676 408.416 80.9867C409.538 79.9058 410.901 79.3654 412.505 79.3654C414.109 79.3654 415.472 79.9058 416.594 80.9867C417.717 82.0676 418.278 83.5289 418.278 85.3704ZM452.918 167.279C450.271 167.199 447.966 166.859 446.002 166.259C444.037 165.658 442.393 164.737 441.07 163.496C439.747 162.255 438.745 160.654 438.064 158.692C437.382 156.731 437.041 154.268 437.041 151.306V74.4412L444.859 73V151.066C444.859 152.987 445.04 154.529 445.4 155.69C445.761 156.851 446.302 157.771 447.024 158.452C447.746 159.133 448.688 159.633 449.851 159.953C451.013 160.273 452.396 160.554 454 160.794L452.918 167.279Z" fill="white"/>
<path d="M99.44 28.344C99.44 31.224 98.992 33.736 98.096 35.88C97.2 37.992 95.936 39.752 94.304 41.16C92.672 42.536 90.72 43.576 88.448 44.28C86.176 44.952 83.68 45.288 80.96 45.288C79.616 45.288 78.128 45.224 76.496 45.096C74.896 45 73.44 44.792 72.128 44.472V12.216C73.44 11.896 74.896 11.688 76.496 11.592C78.128 11.464 79.616 11.4 80.96 11.4C83.68 11.4 86.176 11.752 88.448 12.456C90.72 13.128 92.672 14.168 94.304 15.576C95.936 16.952 97.2 18.712 98.096 20.856C98.992 22.968 99.44 25.464 99.44 28.344ZM81.344 41.208C85.76 41.208 89.056 40.088 91.232 37.848C93.408 35.576 94.496 32.408 94.496 28.344C94.496 24.28 93.408 21.128 91.232 18.888C89.056 16.616 85.76 15.48 81.344 15.48C80.032 15.48 79.008 15.496 78.272 15.528C77.568 15.56 77.072 15.592 76.784 15.624V41.064C77.072 41.096 77.568 41.128 78.272 41.16C79.008 41.192 80.032 41.208 81.344 41.208ZM106.347 45V11.736H126.651V15.72H111.003V25.608H124.923V29.496H111.003V41.016H127.851V45H106.347ZM141.497 41.688C146.361 41.688 148.793 40.024 148.793 36.696C148.793 35.672 148.569 34.808 148.121 34.104C147.705 33.368 147.129 32.744 146.393 32.232C145.657 31.688 144.809 31.224 143.849 30.84C142.921 30.456 141.929 30.072 140.873 29.688C139.657 29.272 138.505 28.808 137.417 28.296C136.329 27.752 135.385 27.128 134.585 26.424C133.785 25.688 133.145 24.824 132.665 23.832C132.217 22.84 131.993 21.64 131.993 20.232C131.993 17.32 132.985 15.048 134.969 13.416C136.953 11.784 139.689 10.968 143.177 10.968C145.193 10.968 147.017 11.192 148.649 11.64C150.313 12.056 151.529 12.52 152.297 13.032L150.809 16.824C150.137 16.408 149.129 16.008 147.785 15.624C146.473 15.208 144.937 15 143.177 15C142.281 15 141.449 15.096 140.681 15.288C139.913 15.48 139.241 15.768 138.665 16.152C138.089 16.536 137.625 17.032 137.273 17.64C136.953 18.216 136.793 18.904 136.793 19.704C136.793 20.6 136.969 21.352 137.321 21.96C137.673 22.568 138.169 23.112 138.809 23.592C139.449 24.04 140.185 24.456 141.017 24.84C141.881 25.224 142.825 25.608 143.849 25.992C145.289 26.568 146.601 27.144 147.785 27.72C149.001 28.296 150.041 28.984 150.905 29.784C151.801 30.584 152.489 31.544 152.969 32.664C153.449 33.752 153.689 35.08 153.689 36.648C153.689 39.56 152.617 41.8 150.473 43.368C148.361 44.936 145.369 45.72 141.497 45.72C140.185 45.72 138.969 45.624 137.849 45.432C136.761 45.272 135.785 45.08 134.921 44.856C134.057 44.6 133.305 44.344 132.665 44.088C132.057 43.8 131.577 43.56 131.225 43.368L132.617 39.528C133.353 39.944 134.473 40.408 135.977 40.92C137.481 41.432 139.321 41.688 141.497 41.688ZM159.316 11.736H163.972V45H159.316V11.736ZM192.51 28.632H197.166V44.184C196.782 44.312 196.222 44.456 195.486 44.616C194.782 44.776 193.95 44.936 192.99 45.096C192.062 45.256 191.038 45.384 189.918 45.48C188.798 45.608 187.662 45.672 186.51 45.672C184.174 45.672 182.046 45.288 180.126 44.52C178.206 43.752 176.558 42.632 175.182 41.16C173.806 39.688 172.734 37.88 171.966 35.736C171.23 33.592 170.862 31.128 170.862 28.344C170.862 25.56 171.278 23.096 172.11 20.952C172.974 18.776 174.126 16.952 175.566 15.48C177.006 14.008 178.686 12.888 180.606 12.12C182.558 11.352 184.638 10.968 186.846 10.968C188.35 10.968 189.678 11.064 190.83 11.256C192.014 11.448 193.022 11.672 193.854 11.928C194.686 12.184 195.358 12.44 195.87 12.696C196.414 12.952 196.782 13.144 196.974 13.272L195.486 17.16C194.558 16.552 193.326 16.056 191.79 15.672C190.254 15.256 188.686 15.048 187.086 15.048C185.39 15.048 183.838 15.352 182.43 15.96C181.054 16.568 179.87 17.448 178.878 18.6C177.918 19.752 177.166 21.16 176.622 22.824C176.078 24.456 175.806 26.296 175.806 28.344C175.806 30.328 176.03 32.136 176.478 33.768C176.958 35.4 177.662 36.808 178.59 37.992C179.55 39.144 180.718 40.04 182.094 40.68C183.502 41.32 185.15 41.64 187.038 41.64C188.382 41.64 189.518 41.576 190.446 41.448C191.406 41.288 192.094 41.144 192.51 41.016V28.632ZM227.256 45C226.552 43.816 225.736 42.488 224.808 41.016C223.912 39.544 222.936 38.024 221.88 36.456C220.824 34.856 219.72 33.24 218.568 31.608C217.448 29.976 216.328 28.408 215.208 26.904C214.088 25.368 213 23.928 211.944 22.584C210.888 21.24 209.912 20.056 209.016 19.032V45H204.456V11.736H208.152C209.656 13.336 211.256 15.208 212.952 17.352C214.68 19.464 216.376 21.656 218.04 23.928C219.736 26.168 221.32 28.376 222.792 30.552C224.296 32.728 225.56 34.664 226.584 36.36V11.736H231.144V45H227.256ZM239.378 45V11.736H259.682V15.72H244.034V25.608H257.954V29.496H244.034V41.016H260.882V45H239.378ZM294.112 28.344C294.112 31.224 293.664 33.736 292.768 35.88C291.872 37.992 290.608 39.752 288.976 41.16C287.344 42.536 285.392 43.576 283.12 44.28C280.848 44.952 278.352 45.288 275.632 45.288C274.288 45.288 272.8 45.224 271.168 45.096C269.568 45 268.112 44.792 266.8 44.472V12.216C268.112 11.896 269.568 11.688 271.168 11.592C272.8 11.464 274.288 11.4 275.632 11.4C278.352 11.4 280.848 11.752 283.12 12.456C285.392 13.128 287.344 14.168 288.976 15.576C290.608 16.952 291.872 18.712 292.768 20.856C293.664 22.968 294.112 25.464 294.112 28.344ZM276.016 41.208C280.432 41.208 283.728 40.088 285.904 37.848C288.08 35.576 289.168 32.408 289.168 28.344C289.168 24.28 288.08 21.128 285.904 18.888C283.728 16.616 280.432 15.48 276.016 15.48C274.704 15.48 273.68 15.496 272.944 15.528C272.24 15.56 271.744 15.592 271.456 15.624V41.064C271.744 41.096 272.24 41.128 272.944 41.16C273.68 41.192 274.704 41.208 276.016 41.208ZM321.104 45.288C320.432 45.288 319.696 45.272 318.896 45.24C318.128 45.208 317.344 45.16 316.544 45.096C315.776 45.032 315.008 44.952 314.24 44.856C313.472 44.76 312.768 44.632 312.128 44.472V12.216C312.768 12.056 313.472 11.928 314.24 11.832C315.008 11.736 315.776 11.656 316.544 11.592C317.344 11.528 318.128 11.48 318.896 11.448C319.664 11.416 320.384 11.4 321.056 11.4C322.976 11.4 324.768 11.544 326.432 11.832C328.128 12.12 329.584 12.616 330.8 13.32C332.048 13.992 333.024 14.888 333.728 16.008C334.432 17.128 334.784 18.504 334.784 20.136C334.784 21.96 334.352 23.464 333.488 24.648C332.624 25.8 331.472 26.664 330.032 27.24C331.984 27.816 333.536 28.728 334.688 29.976C335.84 31.224 336.416 32.984 336.416 35.256C336.416 38.584 335.184 41.096 332.72 42.792C330.288 44.456 326.416 45.288 321.104 45.288ZM316.736 29.496V41.208C317.088 41.24 317.504 41.272 317.984 41.304C318.4 41.336 318.88 41.368 319.424 41.4C320 41.4 320.656 41.4 321.392 41.4C322.768 41.4 324.064 41.32 325.28 41.16C326.528 40.968 327.616 40.648 328.544 40.2C329.472 39.752 330.208 39.128 330.752 38.328C331.328 37.528 331.616 36.52 331.616 35.304C331.616 34.216 331.408 33.304 330.992 32.568C330.576 31.8 329.968 31.192 329.168 30.744C328.4 30.296 327.472 29.976 326.384 29.784C325.296 29.592 324.08 29.496 322.736 29.496H316.736ZM316.736 25.752H321.632C322.784 25.752 323.872 25.672 324.896 25.512C325.92 25.352 326.8 25.064 327.536 24.648C328.304 24.232 328.896 23.688 329.312 23.016C329.76 22.344 329.984 21.496 329.984 20.472C329.984 19.512 329.76 18.712 329.312 18.072C328.864 17.4 328.24 16.872 327.44 16.488C326.672 16.072 325.76 15.768 324.704 15.576C323.648 15.384 322.528 15.288 321.344 15.288C320.16 15.288 319.232 15.304 318.56 15.336C317.888 15.368 317.28 15.416 316.736 15.48V25.752ZM349.673 45V31.656C347.465 28.232 345.385 24.856 343.433 21.528C341.481 18.2 339.641 14.936 337.913 11.736H343.385C344.601 14.36 345.961 17.032 347.465 19.752C348.969 22.44 350.521 25.032 352.121 27.528C353.689 25.032 355.225 22.44 356.729 19.752C358.233 17.032 359.609 14.36 360.857 11.736H366.041C364.313 14.936 362.473 18.2 360.521 21.528C358.569 24.824 356.505 28.168 354.329 31.56V45H349.673Z" fill="white"/>
</svg>
